<?xml version="1.0" standalone="no"?>
<!DOCTYPE svg PUBLIC "-//W3C//DTD SVG 20010904//EN"
 "http://www.w3.org/TR/2001/REC-SVG-20010904/DTD/svg10.dtd">
<svg version="1.0" xmlns="http://www.w3.org/2000/svg"
 width="410.000000pt" height="382.000000pt" viewBox="0 0 410.000000 382.000000"
 preserveAspectRatio="xMidYMid meet">

<g transform="translate(0.000000,382.000000) scale(0.100000,-0.100000)"
fill="#000000" stroke="none">
<path d="M2054 3735 c-140 -30 -255 -95 -353 -201 -151 -161 -224 -371 -199
-571 18 -152 -3 -110 483 -948 131 -225 346 -596 478 -824 132 -228 242 -423
245 -434 12 -46 0 -47 -529 -47 -443 0 -499 2 -514 16 -9 9 -13 24 -10 35 4
10 97 178 207 371 176 310 199 356 191 378 -5 14 -62 116 -127 228 -105 179
-120 201 -131 185 -30 -43 -483 -850 -531 -945 -66 -132 -77 -258 -33 -387 57
-166 216 -295 394 -321 91 -13 1019 -13 1110 0 253 37 449 280 420 520 -16
127 -23 140 -386 770 -392 678 -777 1350 -787 1374 -22 50 -26 138 -9 197 49
167 228 223 350 110 32 -29 46 -51 352 -586 227 -396 442 -770 623 -1084 58
-101 111 -185 117 -187 6 -3 122 -3 258 -2 l248 3 -389 680 c-622 1089 -797
1385 -860 1464 -40 49 -133 121 -204 157 -112 57 -285 77 -414 49z"/>
<path d="M1133 2589 c-100 -173 -223 -386 -273 -474 -163 -281 -397 -689 -408
-712 l-12 -21 235 0 c204 0 238 2 267 17 25 14 51 51 111 157 44 76 171 298
283 493 l204 353 -70 123 c-87 152 -108 199 -135 299 l-21 79 -181 -314z"/>
</g>
</svg>
